<svg width="200" height="57" viewBox="0 0 200 57" fill="none" xmlns="http://www.w3.org/2000/svg">
<path d="M18.506 28.32C20.0513 28.6493 21.2927 29.422 22.23 30.638C23.1673 31.8287 23.636 33.1967 23.636 34.742C23.636 36.9713 22.8507 38.7447 21.28 40.062C19.7347 41.354 17.5687 42 14.782 42H2.356V15.324H14.364C17.0747 15.324 19.19 15.9447 20.71 17.186C22.2553 18.4273 23.028 20.112 23.028 22.24C23.028 23.8107 22.61 25.1153 21.774 26.154C20.9633 27.1927 19.874 27.9147 18.506 28.32ZM8.854 26.116H13.11C14.174 26.116 14.9847 25.888 15.542 25.432C16.1247 24.9507 16.416 24.254 16.416 23.342C16.416 22.43 16.1247 21.7333 15.542 21.252C14.9847 20.7707 14.174 20.53 13.11 20.53H8.854V26.116ZM13.642 36.756C14.7313 36.756 15.5673 36.5153 16.15 36.034C16.758 35.5273 17.062 34.8053 17.062 33.868C17.062 32.9307 16.7453 32.196 16.112 31.664C15.504 31.132 14.6553 30.866 13.566 30.866H8.854V36.756H13.642ZM35.1568 42.304C33.3328 42.304 31.7115 41.9367 30.2928 41.202C28.8742 40.4673 27.7722 39.4287 26.9868 38.086C26.2268 36.7433 25.8468 35.1853 25.8468 33.412C25.8468 31.0053 26.4168 28.814 27.5568 26.838C28.6968 24.862 30.2675 23.3167 32.2688 22.202C34.2702 21.062 36.4995 20.492 38.9568 20.492C40.7808 20.492 42.4022 20.872 43.8208 21.632C45.2648 22.3667 46.3795 23.4053 47.1648 24.748C47.9502 26.0907 48.3428 27.6487 48.3428 29.422C48.3428 31.854 47.7602 34.058 46.5948 36.034C45.4548 37.9847 43.8715 39.5173 41.8448 40.632C39.8435 41.7467 37.6142 42.304 35.1568 42.304ZM36.0688 36.718C37.1328 36.718 38.0828 36.4013 38.9188 35.768C39.7802 35.1093 40.4388 34.2733 40.8948 33.26C41.3762 32.2213 41.6168 31.1447 41.6168 30.03C41.6168 28.7633 41.2748 27.788 40.5908 27.104C39.9068 26.42 39.0455 26.078 38.0068 26.078C36.9175 26.078 35.9548 26.4073 35.1188 27.066C34.3082 27.6993 33.6748 28.5353 33.2188 29.574C32.7628 30.6127 32.5348 31.702 32.5348 32.842C32.5348 34.0833 32.8642 35.046 33.5228 35.73C34.1815 36.3887 35.0302 36.718 36.0688 36.718ZM66.3441 20.568C68.4721 20.568 70.1441 21.1633 71.3601 22.354C72.5761 23.5447 73.1841 25.204 73.1841 27.332C73.1841 28.0413 73.1081 28.8013 72.9561 29.612L70.7521 42H64.2921L66.3441 30.486C66.4201 30.0553 66.4581 29.6753 66.4581 29.346C66.4581 28.282 66.1541 27.4587 65.5461 26.876C64.9635 26.2933 64.1401 26.002 63.0761 26.002C61.8095 26.002 60.7455 26.3947 59.8841 27.18C59.0228 27.9653 58.4655 29.0673 58.2121 30.486V30.296L56.1601 42H49.6621L53.3861 20.796H59.8841L59.3901 23.646C60.2261 22.7087 61.2395 21.9613 62.4301 21.404C63.6461 20.8467 64.9508 20.568 66.3441 20.568ZM88.4916 20.492C91.2276 20.492 93.3936 21.2393 94.9896 22.734C96.6109 24.2033 97.4216 26.2173 97.4216 28.776C97.4216 29.612 97.3583 30.3593 97.2316 31.018C97.1303 31.6007 96.9783 32.2213 96.7756 32.88H82.0696C82.0443 33.032 82.0316 33.2727 82.0316 33.602C82.0316 34.7167 82.3356 35.5653 82.9436 36.148C83.5516 36.7307 84.3623 37.022 85.3756 37.022C86.9969 37.022 88.2383 36.338 89.0996 34.97H96.0156C95.1036 37.1233 93.6216 38.884 91.5696 40.252C89.5176 41.62 87.2123 42.304 84.6536 42.304C81.9176 42.304 79.7263 41.544 78.0796 40.024C76.4583 38.504 75.6476 36.4393 75.6476 33.83C75.6476 33.0447 75.7236 32.234 75.8756 31.398C76.2556 29.194 77.0409 27.2687 78.2316 25.622C79.4223 23.9753 80.9043 22.7087 82.6776 21.822C84.4509 20.9353 86.3889 20.492 88.4916 20.492ZM90.8476 29.574C90.8983 29.2193 90.9236 28.9787 90.9236 28.852C90.9236 27.8387 90.6069 27.066 89.9736 26.534C89.3403 25.9767 88.5043 25.698 87.4656 25.698C86.3509 25.698 85.3629 26.04 84.5016 26.724C83.6656 27.3827 83.0576 28.3327 82.6776 29.574H90.8476ZM99.2916 31.398C99.6716 29.194 100.457 27.2687 101.648 25.622C102.838 23.9753 104.308 22.7087 106.056 21.822C107.829 20.9353 109.754 20.492 111.832 20.492C114.492 20.492 116.594 21.1887 118.14 22.582C119.685 23.9753 120.508 25.9387 120.61 28.472H113.694C113.415 26.8507 112.427 26.04 110.73 26.04C109.539 26.04 108.513 26.5087 107.652 27.446C106.79 28.358 106.208 29.6753 105.904 31.398C105.802 31.93 105.752 32.4873 105.752 33.07C105.752 34.2607 106.03 35.1727 106.588 35.806C107.145 36.4393 107.905 36.756 108.868 36.756C110.54 36.756 111.794 35.9453 112.63 34.324H119.584C118.596 36.8067 117.076 38.7573 115.024 40.176C112.972 41.5947 110.628 42.304 107.994 42.304C105.258 42.304 103.079 41.5567 101.458 40.062C99.8616 38.542 99.0636 36.4773 99.0636 33.868C99.0636 33.0827 99.1396 32.2593 99.2916 31.398ZM131.381 42.304C129.557 42.304 127.936 41.9367 126.517 41.202C125.099 40.4673 123.997 39.4287 123.211 38.086C122.451 36.7433 122.071 35.1853 122.071 33.412C122.071 31.0053 122.641 28.814 123.781 26.838C124.921 24.862 126.492 23.3167 128.493 22.202C130.495 21.062 132.724 20.492 135.181 20.492C137.005 20.492 138.627 20.872 140.045 21.632C141.489 22.3667 142.604 23.4053 143.389 24.748C144.175 26.0907 144.567 27.6487 144.567 29.422C144.567 31.854 143.985 34.058 142.819 36.034C141.679 37.9847 140.096 39.5173 138.069 40.632C136.068 41.7467 133.839 42.304 131.381 42.304ZM132.293 36.718C133.357 36.718 134.307 36.4013 135.143 35.768C136.005 35.1093 136.663 34.2733 137.119 33.26C137.601 32.2213 137.841 31.1447 137.841 30.03C137.841 28.7633 137.499 27.788 136.815 27.104C136.131 26.42 135.27 26.078 134.231 26.078C133.142 26.078 132.179 26.4073 131.343 27.066C130.533 27.6993 129.899 28.5353 129.443 29.574C128.987 30.6127 128.759 31.702 128.759 32.842C128.759 34.0833 129.089 35.046 129.747 35.73C130.406 36.3887 131.255 36.718 132.293 36.718ZM170.318 20.492C173.054 20.492 175.22 21.2393 176.816 22.734C178.437 24.2033 179.248 26.2173 179.248 28.776C179.248 29.612 179.184 30.3593 179.058 31.018C178.956 31.6007 178.804 32.2213 178.602 32.88H163.896C163.87 33.032 163.858 33.2727 163.858 33.602C163.858 34.7167 164.162 35.5653 164.77 36.148C165.378 36.7307 166.188 37.022 167.202 37.022C168.823 37.022 170.064 36.338 170.926 34.97H177.842C176.93 37.1233 175.448 38.884 173.396 40.252C171.344 41.62 169.038 42.304 166.48 42.304C163.744 42.304 161.552 41.544 159.906 40.024C158.284 38.504 157.474 36.4393 157.474 33.83C157.474 33.0447 157.55 32.234 157.702 31.398C158.082 29.194 158.867 27.2687 160.058 25.622C161.248 23.9753 162.73 22.7087 164.504 21.822C166.277 20.9353 168.215 20.492 170.318 20.492ZM172.674 29.574C172.724 29.2193 172.75 28.9787 172.75 28.852C172.75 27.8387 172.433 27.066 171.8 26.534C171.166 25.9767 170.33 25.698 169.292 25.698C168.177 25.698 167.189 26.04 166.328 26.724C165.492 27.3827 164.884 28.3327 164.504 29.574H172.674Z" fill="black"/>
<path d="M157.363 13.88L152.385 42H145.887L150.865 13.88H157.363Z" fill="#EC4D60"/>
<g clip-path="url(#clip0_1_4)">
<path d="M18.506 28.32C20.0513 28.6493 21.2927 29.422 22.23 30.638C23.1673 31.8287 23.636 33.1967 23.636 34.742C23.636 36.9713 22.8507 38.7447 21.28 40.062C19.7347 41.354 17.5687 42 14.782 42H2.356V15.324H14.364C17.0747 15.324 19.19 15.9447 20.71 17.186C22.2553 18.4273 23.028 20.112 23.028 22.24C23.028 23.8107 22.61 25.1153 21.774 26.154C20.9633 27.1927 19.874 27.9147 18.506 28.32ZM8.854 26.116H13.11C14.174 26.116 14.9847 25.888 15.542 25.432C16.1247 24.9507 16.416 24.254 16.416 23.342C16.416 22.43 16.1247 21.7333 15.542 21.252C14.9847 20.7707 14.174 20.53 13.11 20.53H8.854V26.116ZM13.642 36.756C14.7313 36.756 15.5673 36.5153 16.15 36.034C16.758 35.5273 17.062 34.8053 17.062 33.868C17.062 32.9307 16.7453 32.196 16.112 31.664C15.504 31.132 14.6553 30.866 13.566 30.866H8.854V36.756H13.642ZM35.1568 42.304C33.3328 42.304 31.7115 41.9367 30.2928 41.202C28.8742 40.4673 27.7722 39.4287 26.9868 38.086C26.2268 36.7433 25.8468 35.1853 25.8468 33.412C25.8468 31.0053 26.4168 28.814 27.5568 26.838C28.6968 24.862 30.2675 23.3167 32.2688 22.202C34.2702 21.062 36.4995 20.492 38.9568 20.492C40.7808 20.492 42.4022 20.872 43.8208 21.632C45.2648 22.3667 46.3795 23.4053 47.1648 24.748C47.9502 26.0907 48.3428 27.6487 48.3428 29.422C48.3428 31.854 47.7602 34.058 46.5948 36.034C45.4548 37.9847 43.8715 39.5173 41.8448 40.632C39.8435 41.7467 37.6142 42.304 35.1568 42.304ZM36.0688 36.718C37.1328 36.718 38.0828 36.4013 38.9188 35.768C39.7802 35.1093 40.4388 34.2733 40.8948 33.26C41.3762 32.2213 41.6168 31.1447 41.6168 30.03C41.6168 28.7633 41.2748 27.788 40.5908 27.104C39.9068 26.42 39.0455 26.078 38.0068 26.078C36.9175 26.078 35.9548 26.4073 35.1188 27.066C34.3082 27.6993 33.6748 28.5353 33.2188 29.574C32.7628 30.6127 32.5348 31.702 32.5348 32.842C32.5348 34.0833 32.8642 35.046 33.5228 35.73C34.1815 36.3887 35.0302 36.718 36.0688 36.718ZM66.3441 20.568C68.4721 20.568 70.1441 21.1633 71.3601 22.354C72.5761 23.5447 73.1841 25.204 73.1841 27.332C73.1841 28.0413 73.1081 28.8013 72.9561 29.612L70.7521 42H64.2921L66.3441 30.486C66.4201 30.0553 66.4581 29.6753 66.4581 29.346C66.4581 28.282 66.1541 27.4587 65.5461 26.876C64.9635 26.2933 64.1401 26.002 63.0761 26.002C61.8095 26.002 60.7455 26.3947 59.8841 27.18C59.0228 27.9653 58.4655 29.0673 58.2121 30.486V30.296L56.1601 42H49.6621L53.3861 20.796H59.8841L59.3901 23.646C60.2261 22.7087 61.2395 21.9613 62.4301 21.404C63.6461 20.8467 64.9508 20.568 66.3441 20.568ZM88.4916 20.492C91.2276 20.492 93.3936 21.2393 94.9896 22.734C96.6109 24.2033 97.4216 26.2173 97.4216 28.776C97.4216 29.612 97.3583 30.3593 97.2316 31.018C97.1303 31.6007 96.9783 32.2213 96.7756 32.88H82.0696C82.0443 33.032 82.0316 33.2727 82.0316 33.602C82.0316 34.7167 82.3356 35.5653 82.9436 36.148C83.5516 36.7307 84.3623 37.022 85.3756 37.022C86.9969 37.022 88.2383 36.338 89.0996 34.97H96.0156C95.1036 37.1233 93.6216 38.884 91.5696 40.252C89.5176 41.62 87.2123 42.304 84.6536 42.304C81.9176 42.304 79.7263 41.544 78.0796 40.024C76.4583 38.504 75.6476 36.4393 75.6476 33.83C75.6476 33.0447 75.7236 32.234 75.8756 31.398C76.2556 29.194 77.0409 27.2687 78.2316 25.622C79.4223 23.9753 80.9043 22.7087 82.6776 21.822C84.4509 20.9353 86.3889 20.492 88.4916 20.492ZM90.8476 29.574C90.8983 29.2193 90.9236 28.9787 90.9236 28.852C90.9236 27.8387 90.6069 27.066 89.9736 26.534C89.3403 25.9767 88.5043 25.698 87.4656 25.698C86.3509 25.698 85.3629 26.04 84.5016 26.724C83.6656 27.3827 83.0576 28.3327 82.6776 29.574H90.8476ZM99.2916 31.398C99.6716 29.194 100.457 27.2687 101.648 25.622C102.838 23.9753 104.308 22.7087 106.056 21.822C107.829 20.9353 109.754 20.492 111.832 20.492C114.492 20.492 116.594 21.1887 118.14 22.582C119.685 23.9753 120.508 25.9387 120.61 28.472H113.694C113.415 26.8507 112.427 26.04 110.73 26.04C109.539 26.04 108.513 26.5087 107.652 27.446C106.79 28.358 106.208 29.6753 105.904 31.398C105.802 31.93 105.752 32.4873 105.752 33.07C105.752 34.2607 106.03 35.1727 106.588 35.806C107.145 36.4393 107.905 36.756 108.868 36.756C110.54 36.756 111.794 35.9453 112.63 34.324H119.584C118.596 36.8067 117.076 38.7573 115.024 40.176C112.972 41.5947 110.628 42.304 107.994 42.304C105.258 42.304 103.079 41.5567 101.458 40.062C99.8616 38.542 99.0636 36.4773 99.0636 33.868C99.0636 33.0827 99.1396 32.2593 99.2916 31.398ZM131.381 42.304C129.557 42.304 127.936 41.9367 126.517 41.202C125.099 40.4673 123.997 39.4287 123.211 38.086C122.451 36.7433 122.071 35.1853 122.071 33.412C122.071 31.0053 122.641 28.814 123.781 26.838C124.921 24.862 126.492 23.3167 128.493 22.202C130.495 21.062 132.724 20.492 135.181 20.492C137.005 20.492 138.627 20.872 140.045 21.632C141.489 22.3667 142.604 23.4053 143.389 24.748C144.175 26.0907 144.567 27.6487 144.567 29.422C144.567 31.854 143.985 34.058 142.819 36.034C141.679 37.9847 140.096 39.5173 138.069 40.632C136.068 41.7467 133.839 42.304 131.381 42.304ZM132.293 36.718C133.357 36.718 134.307 36.4013 135.143 35.768C136.005 35.1093 136.663 34.2733 137.119 33.26C137.601 32.2213 137.841 31.1447 137.841 30.03C137.841 28.7633 137.499 27.788 136.815 27.104C136.131 26.42 135.27 26.078 134.231 26.078C133.142 26.078 132.179 26.4073 131.343 27.066C130.533 27.6993 129.899 28.5353 129.443 29.574C128.987 30.6127 128.759 31.702 128.759 32.842C128.759 34.0833 129.089 35.046 129.747 35.73C130.406 36.3887 131.255 36.718 132.293 36.718ZM157.363 13.88L152.385 42H145.887L150.865 13.88H157.363ZM170.318 20.492C173.054 20.492 175.22 21.2393 176.816 22.734C178.437 24.2033 179.248 26.2173 179.248 28.776C179.248 29.612 179.184 30.3593 179.058 31.018C178.956 31.6007 178.804 32.2213 178.602 32.88H163.896C163.87 33.032 163.858 33.2727 163.858 33.602C163.858 34.7167 164.162 35.5653 164.77 36.148C165.378 36.7307 166.188 37.022 167.202 37.022C168.823 37.022 170.064 36.338 170.926 34.97H177.842C176.93 37.1233 175.448 38.884 173.396 40.252C171.344 41.62 169.038 42.304 166.48 42.304C163.744 42.304 161.552 41.544 159.906 40.024C158.284 38.504 157.474 36.4393 157.474 33.83C157.474 33.0447 157.55 32.234 157.702 31.398C158.082 29.194 158.867 27.2687 160.058 25.622C161.248 23.9753 162.73 22.7087 164.504 21.822C166.277 20.9353 168.215 20.492 170.318 20.492ZM172.674 29.574C172.724 29.2193 172.75 28.9787 172.75 28.852C172.75 27.8387 172.433 27.066 171.8 26.534C171.166 25.9767 170.33 25.698 169.292 25.698C168.177 25.698 167.189 26.04 166.328 26.724C165.492 27.3827 164.884 28.3327 164.504 29.574H172.674Z" fill="black"/>
</g>
<defs>
<clipPath id="clip0_1_4">
<rect width="200" height="22" fill="white" transform="translate(0 26)"/>
</clipPath>
</defs>
</svg>
