<svg width="28" height="28" viewBox="0 0 28 28" fill="none" xmlns="http://www.w3.org/2000/svg">
<path d="M24.5 3.5H16.3333C15.4695 3.50293 14.6377 3.82733 14 4.41C13.3623 3.82733 12.5305 3.50293 11.6667 3.5H3.49999C3.19058 3.5 2.89383 3.62292 2.67504 3.84171C2.45624 4.0605 2.33333 4.35725 2.33333 4.66667V22.1667C2.33333 22.4761 2.45624 22.7728 2.67504 22.9916C2.89383 23.2104 3.19058 23.3333 3.49999 23.3333H10.2177C10.8313 23.3333 11.4333 23.583 11.8673 24.017L13.1752 25.3248C13.1857 25.3353 13.1997 25.3388 13.2102 25.3493C13.3105 25.4415 13.4225 25.5232 13.5532 25.578H13.5555C13.8401 25.6958 14.1599 25.6958 14.4445 25.578H14.4468C14.5775 25.5232 14.6895 25.4415 14.7898 25.3493C14.8003 25.3388 14.8143 25.3353 14.8248 25.3248L16.1327 24.017C16.5712 23.581 17.1639 23.3354 17.7823 23.3333H24.5C24.8094 23.3333 25.1062 23.2104 25.325 22.9916C25.5437 22.7728 25.6667 22.4761 25.6667 22.1667V4.66667C25.6667 4.35725 25.5437 4.0605 25.325 3.84171C25.1062 3.62292 24.8094 3.5 24.5 3.5ZM10.2177 21H4.66666V5.83333H11.6667C12.3107 5.83333 12.8333 6.35717 12.8333 7V21.8038C12.0604 21.2826 11.1499 21.0028 10.2177 21ZM23.3333 21H17.7823C16.8502 21 15.9343 21.287 15.1667 21.8038V7C15.1667 6.35717 15.6893 5.83333 16.3333 5.83333H23.3333V21Z" fill="black"/>
</svg>
