<svg width="28" height="28" viewBox="0 0 28 28" fill="none" xmlns="http://www.w3.org/2000/svg">
<path d="M24.4382 9.68917C24.4264 8.80556 24.261 7.93074 23.9494 7.10384C23.6791 6.40635 23.2663 5.7729 22.7374 5.24397C22.2085 4.71504 21.575 4.30226 20.8775 4.032C20.0612 3.72559 19.1989 3.5599 18.3272 3.542C17.2049 3.49184 16.849 3.47784 14 3.47784C11.151 3.47784 10.7859 3.47784 9.67169 3.542C8.80037 3.56003 7.93843 3.72572 7.12252 4.032C6.42492 4.30207 5.79138 4.71479 5.26243 5.24374C4.73347 5.77269 4.32076 6.40624 4.05069 7.10384C3.74366 7.91949 3.57833 8.78163 3.56185 9.653C3.51169 10.7765 3.49652 11.1323 3.49652 13.9813C3.49652 16.8303 3.49652 17.1943 3.56185 18.3097C3.57935 19.1823 3.74385 20.0433 4.05069 20.8612C4.32121 21.5586 4.73423 22.1918 5.26336 22.7206C5.79249 23.2493 6.4261 23.6618 7.12369 23.9318C7.93736 24.2506 8.79946 24.4281 9.67285 24.4568C10.7964 24.507 11.1522 24.5222 14.0012 24.5222C16.8502 24.5222 17.2154 24.5222 18.3295 24.4568C19.2012 24.4397 20.0636 24.2744 20.8799 23.968C21.5772 23.6974 22.2104 23.2845 22.7393 22.7557C23.2682 22.2268 23.6811 21.5935 23.9517 20.8962C24.2585 20.0795 24.423 19.2185 24.4405 18.3447C24.4907 17.2223 24.5059 16.8665 24.5059 14.0163C24.5035 11.1673 24.5035 10.8057 24.4382 9.68917ZM13.993 19.369C11.0134 19.369 8.59952 16.9552 8.59952 13.9755C8.59952 10.9958 11.0134 8.582 13.993 8.582C15.4235 8.582 16.7953 9.15025 17.8068 10.1617C18.8183 11.1732 19.3865 12.5451 19.3865 13.9755C19.3865 15.4059 18.8183 16.7778 17.8068 17.7893C16.7953 18.8008 15.4235 19.369 13.993 19.369ZM19.6012 9.64017C19.436 9.64032 19.2724 9.6079 19.1197 9.54475C18.9671 9.4816 18.8284 9.38897 18.7115 9.27215C18.5947 9.15533 18.5021 9.01663 18.4389 8.86397C18.3758 8.71132 18.3434 8.54771 18.3435 8.3825C18.3435 8.21742 18.376 8.05396 18.4392 7.90144C18.5024 7.74892 18.595 7.61034 18.7117 7.49361C18.8284 7.37688 18.967 7.28428 19.1195 7.22111C19.2721 7.15794 19.4355 7.12542 19.6006 7.12542C19.7657 7.12542 19.9292 7.15794 20.0817 7.22111C20.2342 7.28428 20.3728 7.37688 20.4895 7.49361C20.6062 7.61034 20.6988 7.74892 20.762 7.90144C20.8252 8.05396 20.8577 8.21742 20.8577 8.3825C20.8577 9.07784 20.2954 9.64017 19.6012 9.64017Z" fill="white"/>
<path d="M13.993 17.479C15.9279 17.479 17.4965 15.9104 17.4965 13.9755C17.4965 12.0406 15.9279 10.472 13.993 10.472C12.0581 10.472 10.4895 12.0406 10.4895 13.9755C10.4895 15.9104 12.0581 17.479 13.993 17.479Z" fill="white"/>
</svg>
